# xmcd
#
# Track frame offsets:
#	150
#	3702
#	18145
#	32720
#	55417
#	77567
#	94100
#
# Disc length: 1553 seconds
#
# Revision: 0
# Processed by: cddbd v1.5.1PL2 Copyright (c) Steve Scherf et al.
# Submitted via: dBpowerAMP V4.0
#
DISCID=49060f07
DTITLE=Madd Mann Killa - Killa Comin At Cha
DYEAR=1998
DGENRE=Rap
TTITLE0=Intro
TTITLE1=Killa Comin At Cha
TTITLE2=Selling Game
TTITLE3=Feel My Pain
TTITLE4=4 Da Honeyz
TTITLE5=1st 2 Bust (Bloody Massacre Mix)
TTITLE6=Ride Or Die
EXTD=
EXTT0=
EXTT1=
EXTT2=
EXTT3=
EXTT4=
EXTT5=
EXTT6=
PLAYORDER=
